# xmcd
#
# Track frame offsets:
#	150
#	34245
#	56979
#	75217
#	108919
#	128133
#	154570
#	179942
#	210538
#	223779
#	247160
#	260271
#	281060
#	307798
#
# Disc length: 4487 seconds
#
# Revision: 0
# Processed by: cddbd v1.5PL3 Copyright (c) Steve Scherf et al.
# Submitted via: audiograbber 1.81.02
#
DISCID=c911850e
DTITLE=Tiger City Jukes - Dressed To Kill, Liveji
DYEAR=2002
DGENRE=Blues
TTITLE0=Chills
TTITLE1=Up The Line
TTITLE2=Mine All Mine
TTITLE3=Big City Girl
TTITLE4=A Shot Of The Blues
TTITLE5=Let The Good Times Roll
TTITLE6=Escape
TTITLE7=Born Under a Bad Sign
TTITLE8=Please Stop Your Crying
TTITLE9=Losing Your Faith
TTITLE10=I Can't Be Satisfied
TTITLE11=Memory Man
TTITLE12=It Takes Time
TTITLE13=Look At Yonders Wall
EXTD=
EXTT0=
EXTT1=
EXTT2=
EXTT3=
EXTT4=
EXTT5=
EXTT6=
EXTT7=
EXTT8=
EXTT9=
EXTT10=
EXTT11=
EXTT12=
EXTT13=
PLAYORDER=
